<svg xmlns="http://www.w3.org/2000/svg" width="17" height="17" viewBox="0 0 17 17">
    <path fill="#D9DDE0" fill-rule="evenodd" d="M15.127 13.511c-.295.744-.868 1.316-1.615 1.616-1.119.444-3.774.341-5.01.341-1.236 0-3.895.1-5.01-.341-.743-.296-1.316-.869-1.616-1.616-.443-1.119-.341-3.774-.341-5.011s-.099-3.896.341-5.011c.296-.744.869-1.316 1.616-1.616 1.119-.444 3.774-.341 5.01-.341 1.236 0 3.895-.1 5.01.341.743.296 1.316.869 1.615 1.616.444 1.119.342 3.774.342 5.011s.102 3.896-.342 5.011m1.813-8.516c-.064-1.362-.375-2.568-1.373-3.562-.993-.994-2.2-1.305-3.56-1.373-1.404-.08-5.61-.08-7.013 0C3.636.124 2.43.435 1.433 1.43.435 2.422.128 3.63.06 4.99c-.08 1.404-.08 5.61 0 7.014.064 1.362.375 2.568 1.373 3.562.997.994 2.2 1.305 3.56 1.373 1.404.08 5.61.08 7.013 0 1.362-.064 2.568-.375 3.561-1.373.994-.994 1.305-2.2 1.373-3.562.08-1.403.08-5.607 0-7.01m-2.886-1.032c0 .565-.455 1.017-1.016 1.017-.565 0-1.017-.455-1.017-1.017 0-.561.456-1.016 1.017-1.016.561 0 1.016.455 1.016 1.016m-5.552 7.37c-1.559 0-2.833-1.27-2.833-2.833 0-1.563 1.27-2.834 2.833-2.834 1.562 0 2.833 1.271 2.833 2.834 0 1.563-1.274 2.834-2.833 2.834m0-7.193c-2.412 0-4.358 1.946-4.358 4.359 0 2.413 1.946 4.359 4.358 4.359S12.86 10.913 12.86 8.5c0-2.413-1.946-4.359-4.358-4.359"/>
</svg>
