<svg xmlns="http://www.w3.org/2000/svg" width="21" height="21" viewBox="0 0 21 21">
    <path fill="#FFF" d="M5.425 3c-.95 0-1.816.41-2.44 1.152C2.35 4.91 2 5.94 2 7.056c0 2.783 2.534 5.05 6.372 8.48l.12.106c.488.44.989.888 1.508 1.358.561-.51 1.1-.992 1.628-1.465C15.465 12.106 18 9.84 18 7.055c0-1.117-.35-2.147-.985-2.903C16.391 3.41 15.524 3 14.575 3c-1.306 0-2.164.865-2.654 1.591-.467.693-.71 1.388-.792 1.654-.16.515-.615.86-1.129.86-.516 0-.969-.345-1.129-.86-.083-.266-.325-.961-.792-1.654C7.589 3.865 6.73 3 5.425 3M10 19c-.276 0-.542-.102-.75-.286-.823-.727-1.574-1.374-2.3-1.999-1.975-1.699-3.68-3.168-4.885-4.616C.655 10.406 0 8.81 0 7.078c0-1.6.54-3.102 1.522-4.228C2.564 1.658 4.008 1 5.588 1 7.813 1 9.214 2.322 10 3.437 10.787 2.322 12.188 1 14.412 1c1.58 0 3.024.658 4.066 1.85v.002C19.46 3.977 20 5.478 20 7.078c0 1.733-.656 3.329-2.065 5.02-1.204 1.448-2.91 2.917-4.884 4.617-.777.667-1.505 1.295-2.28 1.979-.229.204-.495.306-.771.306"/>
</svg>
