<svg xmlns="http://www.w3.org/2000/svg" width="21" height="21" viewBox="0 0 21 21">
    <g fill="#FFF" fill-rule="evenodd">
        <path d="M19.25 14.125c0 .62-.505 1.125-1.125 1.125H17V11H4v4.25H2.875c-.62 0-1.125-.505-1.125-1.125v-6.25c0-.62.505-1.125 1.125-1.125h15.25c.62 0 1.125.505 1.125 1.125v6.25zm-4 4.875c0 .138-.112.25-.25.25H6c-.138 0-.25-.112-.25-.25v-6.25h9.5V19zM5.75 2c0-.138.112-.25.25-.25h9c.138 0 .25.112.25.25v2.992l-9.5-.014V2zm12.375 3H17V2c0-1.103-.897-2-2-2H6C4.897 0 4 .897 4 2v3H2.875C1.29 5 0 6.29 0 7.875v6.25C0 15.71 1.29 17 2.875 17H4v2c0 1.103.897 2 2 2h9c1.103 0 2-.897 2-2v-2h1.125C19.71 17 21 15.71 21 14.125v-6.25C21 6.29 19.71 5 18.125 5z"/>
        <path d="M9.923 15.25c-.087-.146-.24-.25-.423-.25h-2c-.183 0-.337.104-.424.25M7.077 15.25c-.044.074-.077.157-.077.25 0 .276.224.5.5.5h2c.277 0 .5-.224.5-.5 0-.093-.032-.176-.076-.25M7 17.5c0 .276.224.5.5.5h5c.276 0 .5-.224.5-.5s-.224-.5-.5-.5h-5c-.276 0-.5.224-.5.5"/>
    </g>
</svg>
