<svg xmlns="http://www.w3.org/2000/svg" width="21" height="21" viewBox="0 0 21 21">
    <path fill="#FFF" fill-rule="evenodd" d="M16.066 19.229c-1.186 0-2.15-.965-2.15-2.15 0-1.187.964-2.151 2.15-2.151s2.15.964 2.15 2.15-.964 2.15-2.15 2.15M3.922 11.134c-1.186 0-2.15-.965-2.15-2.151s.964-2.15 2.15-2.15c1.185 0 2.15.964 2.15 2.15s-.965 2.15-2.15 2.15m13.156-9.36c1.186 0 2.15.964 2.15 2.15s-.964 2.15-2.15 2.15-2.15-.964-2.15-2.15.964-2.15 2.15-2.15m-1.012 11.385c-1.036 0-1.975.412-2.678 1.072l-5.807-3.872c.162-.429.262-.89.262-1.375 0-.14-.027-.274-.042-.41l5.971-2.56c.697 1.097 1.914 1.831 3.306 1.831C19.241 7.843 21 6.084 21 3.922 21 1.759 19.241 0 17.078 0c-2.162 0-3.921 1.759-3.921 3.922 0 .14.026.274.041.41L7.227 6.892c-.696-1.096-1.914-1.83-3.305-1.83C1.759 5.06 0 6.818 0 8.98c0 2.164 1.759 3.923 3.922 3.923 1.036 0 1.975-.412 2.678-1.073l5.807 3.872c-.162.429-.262.89-.262 1.375 0 2.163 1.759 3.922 3.921 3.922 2.163 0 3.922-1.759 3.922-3.922 0-2.162-1.759-3.921-3.922-3.921"/>
</svg>
