<svg xmlns="http://www.w3.org/2000/svg" width="21" height="21" viewBox="0 0 21 21">
    <g fill="#FFF" fill-rule="evenodd">
        <path d="M14.519 11.975h-4.286c-.528 0-.957-.444-.957-.989v-5.2c0-.545.429-.989.957-.989s.957.444.957.99v4.21h3.329c.527 0 .956.444.956.99 0 .544-.43.988-.956.988"/>
        <path d="M10.5 1.771c-4.813 0-8.729 3.916-8.729 8.729 0 4.813 3.916 8.729 8.729 8.729 4.813 0 8.729-3.916 8.729-8.729 0-4.813-3.916-8.729-8.729-8.729M10.5 21C4.71 21 0 16.29 0 10.5S4.71 0 10.5 0 21 4.71 21 10.5 16.29 21 10.5 21"/>
    </g>
</svg>
